<?xml version="1.0" encoding="UTF-8" standalone="no"?>
<!-- Created with Inkscape (http://www.inkscape.org/) -->

<svg
   width="700"
   height="700"
   viewBox="0 0 185.20833 185.20833"
   version="1.1"
   id="svg1"
   xml:space="preserve"
   inkscape:version="1.4 (e7c3feb100, 2024-10-09)"
   sodipodi:docname="logo.svg"
   xmlns:inkscape="http://www.inkscape.org/namespaces/inkscape"
   xmlns:sodipodi="http://sodipodi.sourceforge.net/DTD/sodipodi-0.dtd"
   xmlns="http://www.w3.org/2000/svg"
   xmlns:svg="http://www.w3.org/2000/svg"><sodipodi:namedview
     id="namedview1"
     pagecolor="#505050"
     bordercolor="#ffffff"
     borderopacity="1"
     inkscape:showpageshadow="0"
     inkscape:pageopacity="0"
     inkscape:pagecheckerboard="1"
     inkscape:deskcolor="#505050"
     inkscape:document-units="mm"
     inkscape:zoom="0.60397129"
     inkscape:cx="158.1201"
     inkscape:cy="413.09911"
     inkscape:window-width="1366"
     inkscape:window-height="768"
     inkscape:window-x="0"
     inkscape:window-y="0"
     inkscape:window-maximized="0"
     inkscape:current-layer="layer1" /><defs
     id="defs1" /><g
     inkscape:label="Layer 1"
     inkscape:groupmode="layer"
     id="layer1"><g
       id="g7"
       transform="matrix(1.3299449,0,0,1.3965236,-3.5065101,-11.390727)"><g
         id="g3"
         transform="translate(-17.4625)"
         style="stroke:#237eff;stroke-opacity:1"><g
           style="fill:none;stroke:#237eff;stroke-width:2;stroke-linecap:round;stroke-linejoin:round;stroke-opacity:1"
           id="g1"
           transform="matrix(2.5857008,0,0,2.5857008,27.614847,63.824716)"><circle
             cx="12"
             cy="12"
             r="10"
             id="circle1"
             style="stroke:#237eff;stroke-opacity:1" /><path
             d="M 12,2 A 14.5,14.5 0 0 0 12,22 14.5,14.5 0 0 0 12,2"
             id="path1"
             style="stroke:#237eff;stroke-opacity:1" /><path
             d="M 2,12 H 22"
             id="path2"
             style="stroke:#237eff;stroke-opacity:1" /></g><g
           style="fill:none;stroke:#237eff;stroke-width:2;stroke-linecap:round;stroke-linejoin:round;stroke-opacity:1"
           id="g2"
           transform="matrix(2.6980967,0,0,2.6980967,26.272211,15.115547)"><path
             d="M 4.9,19.1 C 1,15.2 1,8.8 4.9,4.9"
             id="path1-3"
             style="stroke:#237eff;stroke-opacity:1" /><path
             d="M 7.8,16.2 C 5.5,13.9 5.5,10.1 7.8,7.7"
             id="path2-6"
             style="stroke:#237eff;stroke-opacity:1" /><circle
             cx="12"
             cy="12"
             r="2"
             id="circle2"
             style="stroke:#237eff;stroke-opacity:1" /><path
             d="m 16.2,7.8 c 2.3,2.3 2.3,6.1 0,8.5"
             id="path3"
             style="stroke:#237eff;stroke-opacity:1" /><path
             d="M 19.1,4.9 C 23,8.8 23,15.1 19.1,19"
             id="path4"
             style="stroke:#237eff;stroke-opacity:1" /></g></g><g
         id="g6"
         transform="translate(-6.3500003,-1.2038532)"
         style="stroke:#237eff;stroke-opacity:1"><g
           style="fill:none;stroke:#237eff;stroke-width:2;stroke-linecap:round;stroke-linejoin:round;stroke-opacity:1"
           id="g4"
           transform="matrix(2.3090909,0,0,2.3090909,86.326326,69.128408)"><rect
             width="20"
             height="8"
             x="2"
             y="2"
             rx="2"
             ry="2"
             id="rect1"
             style="stroke:#237eff;stroke-opacity:1" /><rect
             width="20"
             height="8"
             x="2"
             y="14"
             rx="2"
             ry="2"
             id="rect2"
             style="stroke:#237eff;stroke-opacity:1" /><line
             x1="6"
             x2="6.0100002"
             y1="6"
             y2="6"
             id="line2"
             style="stroke:#237eff;stroke-opacity:1" /><line
             x1="6"
             x2="6.0100002"
             y1="18"
             y2="18"
             id="line3"
             style="stroke:#237eff;stroke-opacity:1" /></g><g
           style="fill:none;stroke:#237eff;stroke-width:2;stroke-linecap:round;stroke-linejoin:round;stroke-opacity:1"
           id="g5"
           transform="matrix(1.7318182,0,0,1.7318182,93.253598,27.372348)"><path
             d="M 2,12 7,2"
             id="path1-7"
             style="stroke:#237eff;stroke-opacity:1" /><path
             d="M 7,12 12,2"
             id="path2-5"
             style="stroke:#237eff;stroke-opacity:1" /><path
             d="M 12,12 17,2"
             id="path3-3"
             style="stroke:#237eff;stroke-opacity:1" /><path
             d="M 17,12 22,2"
             id="path4-5"
             style="stroke:#237eff;stroke-opacity:1" /><path
             d="m 4.5,7 h 15"
             id="path5"
             style="stroke:#237eff;stroke-opacity:1" /><path
             d="m 12,16 v 6"
             id="path6"
             style="stroke:#237eff;stroke-opacity:1" /></g></g></g></g></svg>
